<svg xmlns="http://www.w3.org/2000/svg" width="1054" height="138" viewBox="0 0 1054 138" font-family="ui-monospace,SFMono-Regular,Menlo,monospace">
<rect fill="#0c1210" width="1054" height="138" rx="6"/>
<text x="18" y="26" fill="#e5e9e3" font-size="15" font-weight="700">ROFL</text><text x="72" y="26" fill="#7a867f" font-size="12.5">height 1925 &#183; difficulty 3,000 &#183; 3000 puzzles per block</text><rect x="18" y="44" width="148" height="76" rx="4" fill="#131b17" stroke="#28332e" stroke-width="1"/><text x="29" y="65" fill="#d9a64c" font-size="13" font-weight="700">#1920</text><text x="29" y="81" fill="#e5e9e3" font-size="10">bc5a1384b3b95cc9&#8230;</text><text x="29" y="96" fill="#5cab9b" font-size="10.5">@iamgd67</text><text x="29" y="110" fill="#7a867f" font-size="9">gm</text><line x1="166" y1="82.0" x2="192" y2="82.0" stroke="#38443e" stroke-width="1.5" stroke-dasharray="3 3"/><rect x="192" y="44" width="148" height="76" rx="4" fill="#131b17" stroke="#28332e" stroke-width="1"/><text x="203" y="65" fill="#d9a64c" font-size="13" font-weight="700">#1921</text><text x="203" y="81" fill="#e5e9e3" font-size="10">b37c9d6cb2a63996&#8230;</text><text x="203" y="96" fill="#5cab9b" font-size="10.5">@ywltby</text><text x="203" y="110" fill="#7a867f" font-size="9">原神？启动！</text><line x1="340" y1="82.0" x2="366" y2="82.0" stroke="#38443e" stroke-width="1.5" stroke-dasharray="3 3"/><rect x="366" y="44" width="148" height="76" rx="4" fill="#131b17" stroke="#28332e" stroke-width="1"/><text x="377" y="65" fill="#d9a64c" font-size="13" font-weight="700">#1922</text><text x="377" y="81" fill="#e5e9e3" font-size="10">9aa2f2c3b3c04884&#8230;</text><text x="377" y="96" fill="#5cab9b" font-size="10.5">@ywltby</text><text x="377" y="110" fill="#7a867f" font-size="9">T1我们明天就把你送回家。</text><line x1="514" y1="82.0" x2="540" y2="82.0" stroke="#38443e" stroke-width="1.5" stroke-dasharray="3 3"/><rect x="540" y="44" width="148" height="76" rx="4" fill="#131b17" stroke="#28332e" stroke-width="1"/><text x="551" y="65" fill="#d9a64c" font-size="13" font-weight="700">#1923</text><text x="551" y="81" fill="#e5e9e3" font-size="10">dd37990fc31b38de&#8230;</text><text x="551" y="96" fill="#5cab9b" font-size="10.5">@ywltby</text><text x="551" y="110" fill="#7a867f" font-size="9">都是同龄人，我原本没想降维打击。</text><line x1="688" y1="82.0" x2="714" y2="82.0" stroke="#38443e" stroke-width="1.5" stroke-dasharray="3 3"/><rect x="714" y="44" width="148" height="76" rx="4" fill="#131b17" stroke="#28332e" stroke-width="1"/><text x="725" y="65" fill="#d9a64c" font-size="13" font-weight="700">#1924</text><text x="725" y="81" fill="#e5e9e3" font-size="10">a0b7a32834ee2e33&#8230;</text><text x="725" y="96" fill="#5cab9b" font-size="10.5">@ywltby</text><text x="725" y="110" fill="#7a867f" font-size="9">T1我们明天就把你送回家。</text><line x1="862" y1="82.0" x2="888" y2="82.0" stroke="#38443e" stroke-width="1.5" stroke-dasharray="3 3"/><rect x="888" y="44" width="148" height="76" rx="4" fill="#131b17" stroke="#28332e" stroke-width="1"/><text x="899" y="65" fill="#d9a64c" font-size="13" font-weight="700">#1925</text><text x="899" y="81" fill="#e5e9e3" font-size="10">4c2ec6f47ba673c5&#8230;</text><text x="899" y="96" fill="#5cab9b" font-size="10.5">@ywltby</text><text x="899" y="110" fill="#7a867f" font-size="9">输你一场，不代表我们会一直输给你。</text></svg>
