<svg xmlns="http://www.w3.org/2000/svg" width="1054" height="138" viewBox="0 0 1054 138" font-family="ui-monospace,SFMono-Regular,Menlo,monospace">
<rect fill="#0c1210" width="1054" height="138" rx="6"/>
<text x="18" y="26" fill="#e5e9e3" font-size="15" font-weight="700">ROFL</text><text x="72" y="26" fill="#7a867f" font-size="12.5">height 1597 &#183; difficulty 3,000 &#183; 3000 puzzles per block</text><rect x="18" y="44" width="148" height="76" rx="4" fill="#131b17" stroke="#28332e" stroke-width="1"/><text x="29" y="65" fill="#d9a64c" font-size="13" font-weight="700">#1592</text><text x="29" y="81" fill="#e5e9e3" font-size="10">862c1ee02a71e5d8&#8230;</text><text x="29" y="96" fill="#5cab9b" font-size="10.5">@ywltby</text><text x="29" y="110" fill="#7a867f" font-size="9">飞八分钱干飞马</text><line x1="166" y1="82.0" x2="192" y2="82.0" stroke="#38443e" stroke-width="1.5" stroke-dasharray="3 3"/><rect x="192" y="44" width="148" height="76" rx="4" fill="#131b17" stroke="#28332e" stroke-width="1"/><text x="203" y="65" fill="#d9a64c" font-size="13" font-weight="700">#1593</text><text x="203" y="81" fill="#e5e9e3" font-size="10">848178e164605383&#8230;</text><text x="203" y="96" fill="#5cab9b" font-size="10.5">@ywltby</text><text x="203" y="110" fill="#7a867f" font-size="9">谁是大明星？</text><line x1="340" y1="82.0" x2="366" y2="82.0" stroke="#38443e" stroke-width="1.5" stroke-dasharray="3 3"/><rect x="366" y="44" width="148" height="76" rx="4" fill="#131b17" stroke="#28332e" stroke-width="1"/><text x="377" y="65" fill="#d9a64c" font-size="13" font-weight="700">#1594</text><text x="377" y="81" fill="#e5e9e3" font-size="10">30d8b3ea5faae771&#8230;</text><text x="377" y="96" fill="#5cab9b" font-size="10.5">@americanvain</text><text x="377" y="110" fill="#7a867f" font-size="9">testing</text><line x1="514" y1="82.0" x2="540" y2="82.0" stroke="#38443e" stroke-width="1.5" stroke-dasharray="3 3"/><rect x="540" y="44" width="148" height="76" rx="4" fill="#131b17" stroke="#28332e" stroke-width="1"/><text x="551" y="65" fill="#d9a64c" font-size="13" font-weight="700">#1595</text><text x="551" y="81" fill="#e5e9e3" font-size="10">602278c5fea000ef&#8230;</text><text x="551" y="96" fill="#5cab9b" font-size="10.5">@americanvain</text><text x="551" y="110" fill="#7a867f" font-size="9">testing</text><line x1="688" y1="82.0" x2="714" y2="82.0" stroke="#38443e" stroke-width="1.5" stroke-dasharray="3 3"/><rect x="714" y="44" width="148" height="76" rx="4" fill="#131b17" stroke="#28332e" stroke-width="1"/><text x="725" y="65" fill="#d9a64c" font-size="13" font-weight="700">#1596</text><text x="725" y="81" fill="#e5e9e3" font-size="10">c1db2784db9436c0&#8230;</text><text x="725" y="96" fill="#5cab9b" font-size="10.5">@ywltby</text><text x="725" y="110" fill="#7a867f" font-size="9">菲比啾比</text><line x1="862" y1="82.0" x2="888" y2="82.0" stroke="#38443e" stroke-width="1.5" stroke-dasharray="3 3"/><rect x="888" y="44" width="148" height="76" rx="4" fill="#131b17" stroke="#28332e" stroke-width="1"/><text x="899" y="65" fill="#d9a64c" font-size="13" font-weight="700">#1597</text><text x="899" y="81" fill="#e5e9e3" font-size="10">759b9d09b936be21&#8230;</text><text x="899" y="96" fill="#5cab9b" font-size="10.5">@americanvain</text><text x="899" y="110" fill="#7a867f" font-size="9">testing</text></svg>
