<svg xmlns="http://www.w3.org/2000/svg" width="1054" height="138" viewBox="0 0 1054 138" font-family="ui-monospace,SFMono-Regular,Menlo,monospace">
<rect fill="#f1f3ef" width="1054" height="138" rx="6"/>
<text x="18" y="26" fill="#121916" font-size="15" font-weight="700">ROFL</text><text x="72" y="26" fill="#68746e" font-size="12.5">height 1707 &#183; difficulty 3,000 &#183; 3000 puzzles per block</text><rect x="18" y="44" width="148" height="76" rx="4" fill="#ffffff" stroke="#d5dbd2" stroke-width="1"/><text x="29" y="65" fill="#8a5f10" font-size="13" font-weight="700">#1702</text><text x="29" y="81" fill="#121916" font-size="10">78c99a166225c4db&#8230;</text><text x="29" y="96" fill="#1c5b52" font-size="10.5">@americanvain</text><text x="29" y="110" fill="#68746e" font-size="9">testing</text><line x1="166" y1="82.0" x2="192" y2="82.0" stroke="#b3bcb4" stroke-width="1.5" stroke-dasharray="3 3"/><rect x="192" y="44" width="148" height="76" rx="4" fill="#ffffff" stroke="#d5dbd2" stroke-width="1"/><text x="203" y="65" fill="#8a5f10" font-size="13" font-weight="700">#1703</text><text x="203" y="81" fill="#121916" font-size="10">6f0daa2d84dbcdf4&#8230;</text><text x="203" y="96" fill="#1c5b52" font-size="10.5">@americanvain</text><text x="203" y="110" fill="#68746e" font-size="9">testing</text><line x1="340" y1="82.0" x2="366" y2="82.0" stroke="#b3bcb4" stroke-width="1.5" stroke-dasharray="3 3"/><rect x="366" y="44" width="148" height="76" rx="4" fill="#ffffff" stroke="#d5dbd2" stroke-width="1"/><text x="377" y="65" fill="#8a5f10" font-size="13" font-weight="700">#1704</text><text x="377" y="81" fill="#121916" font-size="10">a6d54be329d1f94e&#8230;</text><text x="377" y="96" fill="#1c5b52" font-size="10.5">@ywltby</text><text x="377" y="110" fill="#68746e" font-size="9">飞八分钱</text><line x1="514" y1="82.0" x2="540" y2="82.0" stroke="#b3bcb4" stroke-width="1.5" stroke-dasharray="3 3"/><rect x="540" y="44" width="148" height="76" rx="4" fill="#ffffff" stroke="#d5dbd2" stroke-width="1"/><text x="551" y="65" fill="#8a5f10" font-size="13" font-weight="700">#1705</text><text x="551" y="81" fill="#121916" font-size="10">42fe5bf7cc6e5e9f&#8230;</text><text x="551" y="96" fill="#1c5b52" font-size="10.5">@ywltby</text><text x="551" y="110" fill="#68746e" font-size="9">不要小瞧EDG所有人的羁绊啊。</text><line x1="688" y1="82.0" x2="714" y2="82.0" stroke="#b3bcb4" stroke-width="1.5" stroke-dasharray="3 3"/><rect x="714" y="44" width="148" height="76" rx="4" fill="#ffffff" stroke="#d5dbd2" stroke-width="1"/><text x="725" y="65" fill="#8a5f10" font-size="13" font-weight="700">#1706</text><text x="725" y="81" fill="#121916" font-size="10">f68711bc57d02dfc&#8230;</text><text x="725" y="96" fill="#1c5b52" font-size="10.5">@ywltby</text><text x="725" y="110" fill="#68746e" font-size="9">遇到我们的时候，你才是挑战者。</text><line x1="862" y1="82.0" x2="888" y2="82.0" stroke="#b3bcb4" stroke-width="1.5" stroke-dasharray="3 3"/><rect x="888" y="44" width="148" height="76" rx="4" fill="#ffffff" stroke="#d5dbd2" stroke-width="1"/><text x="899" y="65" fill="#8a5f10" font-size="13" font-weight="700">#1707</text><text x="899" y="81" fill="#121916" font-size="10">0d29b92f4808bd6d&#8230;</text><text x="899" y="96" fill="#1c5b52" font-size="10.5">@ywltby</text><text x="899" y="110" fill="#68746e" font-size="9">原神？启动！</text></svg>
