<svg xmlns="http://www.w3.org/2000/svg" width="1054" height="138" viewBox="0 0 1054 138" font-family="ui-monospace,SFMono-Regular,Menlo,monospace">
<rect fill="#0c1210" width="1054" height="138" rx="6"/>
<text x="18" y="26" fill="#e5e9e3" font-size="15" font-weight="700">ROFL</text><text x="72" y="26" fill="#7a867f" font-size="12.5">height 1370 &#183; difficulty 9,083,344,106,117,049,959,262,311,242,559,085,608,960 &#183; 1024 puzzles per block</text><rect x="18" y="44" width="148" height="76" rx="4" fill="#131b17" stroke="#28332e" stroke-width="1"/><text x="29" y="65" fill="#d9a64c" font-size="13" font-weight="700">#1365</text><text x="29" y="81" fill="#e5e9e3" font-size="10">f170d2fd4d42c9c0&#8230;</text><text x="29" y="96" fill="#5cab9b" font-size="10.5">@americanvain</text><text x="29" y="110" fill="#7a867f" font-size="9">testing</text><line x1="166" y1="82.0" x2="192" y2="82.0" stroke="#38443e" stroke-width="1.5" stroke-dasharray="3 3"/><rect x="192" y="44" width="148" height="76" rx="4" fill="#131b17" stroke="#28332e" stroke-width="1"/><text x="203" y="65" fill="#d9a64c" font-size="13" font-weight="700">#1366</text><text x="203" y="81" fill="#e5e9e3" font-size="10">cf56a684b32bfe2c&#8230;</text><text x="203" y="96" fill="#5cab9b" font-size="10.5">@ywltby</text><text x="203" y="110" fill="#7a867f" font-size="9">飞八分钱</text><line x1="340" y1="82.0" x2="366" y2="82.0" stroke="#38443e" stroke-width="1.5" stroke-dasharray="3 3"/><rect x="366" y="44" width="148" height="76" rx="4" fill="#131b17" stroke="#28332e" stroke-width="1"/><text x="377" y="65" fill="#d9a64c" font-size="13" font-weight="700">#1367</text><text x="377" y="81" fill="#e5e9e3" font-size="10">ffd3cdcb79ae8e4c&#8230;</text><text x="377" y="96" fill="#5cab9b" font-size="10.5">@ywltby</text><text x="377" y="110" fill="#7a867f" font-size="9">菲八啾比</text><line x1="514" y1="82.0" x2="540" y2="82.0" stroke="#38443e" stroke-width="1.5" stroke-dasharray="3 3"/><rect x="540" y="44" width="148" height="76" rx="4" fill="#131b17" stroke="#28332e" stroke-width="1"/><text x="551" y="65" fill="#d9a64c" font-size="13" font-weight="700">#1368</text><text x="551" y="81" fill="#e5e9e3" font-size="10">d4d0023c897766fb&#8230;</text><text x="551" y="96" fill="#5cab9b" font-size="10.5">@americanvain</text><text x="551" y="110" fill="#7a867f" font-size="9">testing</text><line x1="688" y1="82.0" x2="714" y2="82.0" stroke="#38443e" stroke-width="1.5" stroke-dasharray="3 3"/><rect x="714" y="44" width="148" height="76" rx="4" fill="#131b17" stroke="#28332e" stroke-width="1"/><text x="725" y="65" fill="#d9a64c" font-size="13" font-weight="700">#1369</text><text x="725" y="81" fill="#e5e9e3" font-size="10">6d80683f4cde72fd&#8230;</text><text x="725" y="96" fill="#5cab9b" font-size="10.5">@americanvain</text><text x="725" y="110" fill="#7a867f" font-size="9">testing</text><line x1="862" y1="82.0" x2="888" y2="82.0" stroke="#38443e" stroke-width="1.5" stroke-dasharray="3 3"/><rect x="888" y="44" width="148" height="76" rx="4" fill="#131b17" stroke="#28332e" stroke-width="1"/><text x="899" y="65" fill="#d9a64c" font-size="13" font-weight="700">#1370</text><text x="899" y="81" fill="#e5e9e3" font-size="10">2e7e9a0b94992c80&#8230;</text><text x="899" y="96" fill="#5cab9b" font-size="10.5">@americanvain</text><text x="899" y="110" fill="#7a867f" font-size="9">testing</text></svg>
