<svg xmlns="http://www.w3.org/2000/svg" width="1054" height="138" viewBox="0 0 1054 138" font-family="ui-monospace,SFMono-Regular,Menlo,monospace">
<rect fill="#0c1210" width="1054" height="138" rx="6"/>
<text x="18" y="26" fill="#e5e9e3" font-size="15" font-weight="700">ROFL</text><text x="72" y="26" fill="#7a867f" font-size="12.5">height 1356 &#183; difficulty 2,626,552,641,014,147,947,670,451,393,327,496,429,568 &#183; 1024 puzzles per block</text><rect x="18" y="44" width="148" height="76" rx="4" fill="#131b17" stroke="#28332e" stroke-width="1"/><text x="29" y="65" fill="#d9a64c" font-size="13" font-weight="700">#1351</text><text x="29" y="81" fill="#e5e9e3" font-size="10">24d683261f366be0&#8230;</text><text x="29" y="96" fill="#5cab9b" font-size="10.5">@ywltby</text><text x="29" y="110" fill="#7a867f" font-size="9">天不生我ZmjjKK，瓦圈万古如长夜。</text><line x1="166" y1="82.0" x2="192" y2="82.0" stroke="#38443e" stroke-width="1.5" stroke-dasharray="3 3"/><rect x="192" y="44" width="148" height="76" rx="4" fill="#131b17" stroke="#28332e" stroke-width="1"/><text x="203" y="65" fill="#d9a64c" font-size="13" font-weight="700">#1352</text><text x="203" y="81" fill="#e5e9e3" font-size="10">3daeb71d8b67e1ca&#8230;</text><text x="203" y="96" fill="#5cab9b" font-size="10.5">@americanvain</text><text x="203" y="110" fill="#7a867f" font-size="9">testing</text><line x1="340" y1="82.0" x2="366" y2="82.0" stroke="#38443e" stroke-width="1.5" stroke-dasharray="3 3"/><rect x="366" y="44" width="148" height="76" rx="4" fill="#131b17" stroke="#28332e" stroke-width="1"/><text x="377" y="65" fill="#d9a64c" font-size="13" font-weight="700">#1353</text><text x="377" y="81" fill="#e5e9e3" font-size="10">7342b9d3b630f99b&#8230;</text><text x="377" y="96" fill="#5cab9b" font-size="10.5">@americanvain</text><text x="377" y="110" fill="#7a867f" font-size="9">testing</text><line x1="514" y1="82.0" x2="540" y2="82.0" stroke="#38443e" stroke-width="1.5" stroke-dasharray="3 3"/><rect x="540" y="44" width="148" height="76" rx="4" fill="#131b17" stroke="#28332e" stroke-width="1"/><text x="551" y="65" fill="#d9a64c" font-size="13" font-weight="700">#1354</text><text x="551" y="81" fill="#e5e9e3" font-size="10">553fb6eeeb853384&#8230;</text><text x="551" y="96" fill="#5cab9b" font-size="10.5">@ethahae</text><text x="551" y="110" fill="#7a867f" font-size="9">gm from a C solver</text><line x1="688" y1="82.0" x2="714" y2="82.0" stroke="#38443e" stroke-width="1.5" stroke-dasharray="3 3"/><rect x="714" y="44" width="148" height="76" rx="4" fill="#131b17" stroke="#28332e" stroke-width="1"/><text x="725" y="65" fill="#d9a64c" font-size="13" font-weight="700">#1355</text><text x="725" y="81" fill="#e5e9e3" font-size="10">00032958734b880d&#8230;</text><text x="725" y="96" fill="#5cab9b" font-size="10.5">@americanvain</text><text x="725" y="110" fill="#7a867f" font-size="9">testing</text><line x1="862" y1="82.0" x2="888" y2="82.0" stroke="#38443e" stroke-width="1.5" stroke-dasharray="3 3"/><rect x="888" y="44" width="148" height="76" rx="4" fill="#131b17" stroke="#28332e" stroke-width="1"/><text x="899" y="65" fill="#d9a64c" font-size="13" font-weight="700">#1356</text><text x="899" y="81" fill="#e5e9e3" font-size="10">f94881a5fbc07f35&#8230;</text><text x="899" y="96" fill="#5cab9b" font-size="10.5">@americanvain</text><text x="899" y="110" fill="#7a867f" font-size="9">testing</text></svg>
